<svg xmlns="http://www.w3.org/2000/svg" width="24" height="22" viewBox="0 0 24 22">
  <g transform="translate(1 1)">
    <path d="M19.25,0 L2.75,0 C1.48591667,0 0.458333333,1.02 0.458333333,2.27272727 L0.458333333,12.2727273 C0.458333333,13.5254545 1.48591667,14.5454545 2.75,14.5454545 L4.65666667,14.5454545 C4.88491667,14.5454545 5.07833333,14.3790909 5.11041667,14.1554545 C5.52933333,11.2681818 8.06116667,9.09090909 11,9.09090909 C13.9388333,9.09090909 16.4706667,11.2681818 16.8895833,14.1554545 C16.9216667,14.3790909 17.1884167,14.5454545 17.4166667,14.5454545 L19.25,14.5454545 C20.5140833,14.5454545 21.5416667,13.5254545 21.5416667,12.2727273 L21.5416667,2.27272727 C21.5416667,1.02 20.5140833,0 19.25,0 Z M7.65783333,8.04909091 L3.0745,12.5945455 C2.98466667,12.6827273 2.86733333,12.7272727 2.75,12.7272727 C2.63266667,12.7272727 2.51533333,12.6827273 2.4255,12.5945455 C2.24675,12.4172727 2.24675,12.1290909 2.4255,11.9518182 L7.00883333,7.40636364 C7.18758333,7.22909091 7.47816667,7.22909091 7.65691667,7.40636364 C7.83566667,7.58363636 7.83658333,7.87090909 7.65783333,8.04909091 Z M11,8.19090909 C10.5105,8.19090909 10.0219167,8.04181818 9.60391667,7.74272727 L2.48141667,2.64181818 C2.27608333,2.49454545 2.23025,2.21 2.37875,2.00636364 C2.52725,1.80181818 2.81416667,1.75818182 3.01858333,1.90454545 L10.1410833,7.00545455 C10.66175,7.37909091 11.3391667,7.37909091 11.8598333,7.00545455 L18.9823333,1.90454545 C19.1876667,1.75818182 19.4736667,1.80181818 19.6221667,2.00636364 C19.7706667,2.21 19.7239167,2.49454545 19.5195,2.64090909 L12.397,7.74181818 C11.9780833,8.04090909 11.4895,8.19090909 11,8.19090909 Z M19.5745,12.5945455 C19.4846667,12.6827273 19.3673333,12.7272727 19.25,12.7272727 C19.1326667,12.7272727 19.0153333,12.6827273 18.9255,12.5945455 L14.3421667,8.04909091 C14.1634167,7.87181818 14.1634167,7.58363636 14.3421667,7.40636364 C14.5209167,7.22909091 14.8115,7.22909091 14.99025,7.40636364 L19.5735833,11.9518182 C19.75325,12.1290909 19.75325,12.4163636 19.5745,12.5945455 Z"/>
    <path d="M11,10 C8.22066667,10 5.95833333,12.2427273 5.95833333,15 C5.95833333,17.7572727 8.22066667,20 11,20 C13.7793333,20 16.0416667,17.7572727 16.0416667,15 C16.0416667,12.2427273 13.7793333,10 11,10 Z M13.1578333,14.4127273 C13.068,14.5009091 12.9506667,14.5454545 12.8333333,14.5454545 C12.716,14.5454545 12.5986667,14.5009091 12.5088333,14.4127273 L11.4583333,13.37 L11.4583333,17.7272727 C11.4583333,17.9781818 11.253,18.1818182 11,18.1818182 C10.747,18.1818182 10.5416667,17.9781818 10.5416667,17.7272727 L10.5416667,13.37 L9.49116667,14.4118182 C9.31241667,14.5890909 9.02183333,14.5890909 8.84308333,14.4118182 C8.66433333,14.2345455 8.66433333,13.9463636 8.84308333,13.7690909 L10.6755,11.9518182 C10.7176667,11.91 10.769,11.8763636 10.8249167,11.8527273 C10.93675,11.8063636 11.06325,11.8063636 11.1750833,11.8527273 C11.2319167,11.8754545 11.2823333,11.9090909 11.3245,11.9518182 L13.1569167,13.7690909 C13.3365833,13.9472727 13.3365833,14.2345455 13.1578333,14.4127273 Z"/>
  </g>
</svg>
