<svg xmlns="http://www.w3.org/2000/svg" width="22" height="22" viewBox="0 0 22 22">
  <g fill-rule="evenodd">
    <path fill-rule="nonzero" d="M3.985 17.053C4.079 16.677 3.996 16.285 3.757 15.98 3.519 15.675 3.16 15.5 2.772 15.5L1.5 15.5C1.271 15.5 1.07 15.656 1.015 15.879L.518 17.868C.516 17.875.514 17.882.513 17.889L.015 19.879C-.051 20.147.111 20.418.379 20.485.42 20.495.46 20.5.5 20.5.725 20.5.929 20.349.985 20.121L1.391 18.5 2.648 18.5C3.223 18.5 3.722 18.11 3.861 17.553L3.985 17.053zM2.89 17.312C2.862 17.422 2.763 17.5 2.647 17.5L1.641 17.5 1.891 16.5 2.773 16.5C2.879 16.5 2.942 16.56 2.97 16.596 2.997 16.632 3.041 16.708 3.015 16.811L2.89 17.312zM7.121 17.515C6.911 17.463 6.706 17.55 6.592 17.715 6.376 17.581 6.129 17.5 5.865 17.5L5.153 17.5C4.538 17.5 4.005 17.917 3.856 18.512L3.79 18.777C3.686 19.194 3.778 19.628 4.043 19.966 4.308 20.306 4.705 20.5 5.135 20.5L5.847 20.5C5.992 20.5 6.131 20.473 6.263 20.43 6.3 20.451 6.336 20.474 6.379 20.485 6.42 20.495 6.46 20.5 6.5 20.5 6.725 20.5 6.929 20.349 6.985 20.121L7.485 18.121C7.552 17.854 7.39 17.582 7.121 17.515zM5.135 19.5C5.016 19.5 4.905 19.446 4.831 19.352 4.757 19.258 4.731 19.137 4.761 19.021L4.827 18.755C4.864 18.605 4.998 18.501 5.153 18.501L5.865 18.501C5.984 18.501 6.095 18.555 6.169 18.649 6.243 18.743 6.269 18.864 6.239 18.98L6.173 19.246C6.136 19.396 6.002 19.5 5.847 19.5L5.135 19.5zM15.985 17.053C16.079 16.677 15.996 16.285 15.757 15.98 15.518 15.675 15.159 15.5 14.772 15.5L13.5 15.5C13.271 15.5 13.07 15.656 13.015 15.879L12.518 17.868C12.516 17.875 12.514 17.882 12.513 17.889L12.015 19.879C11.949 20.147 12.111 20.418 12.379 20.485 12.42 20.495 12.46 20.5 12.5 20.5 12.725 20.5 12.929 20.349 12.985 20.121L13.39 18.5 14.647 18.5C15.222 18.5 15.721 18.11 15.86 17.553L15.985 17.053zM14.89 17.312C14.863 17.423 14.763 17.5 14.648 17.5L13.641 17.5 13.891 16.5 14.773 16.5C14.879 16.5 14.942 16.56 14.97 16.596 14.997 16.632 15.041 16.708 15.015 16.811L14.89 17.312zM19.121 17.515C18.91 17.463 18.705 17.55 18.591 17.715 18.375 17.581 18.128 17.5 17.865 17.5L17.153 17.5C16.538 17.5 16.005 17.917 15.856 18.512L15.79 18.777C15.686 19.194 15.778 19.628 16.043 19.966 16.308 20.304 16.705 20.499 17.135 20.499L17.847 20.499C17.992 20.499 18.131 20.472 18.263 20.429 18.3 20.45 18.336 20.473 18.379 20.484 18.42 20.495 18.46 20.5 18.5 20.5 18.725 20.5 18.929 20.349 18.985 20.121L19.485 18.121C19.552 17.854 19.39 17.582 19.121 17.515zM17.135 19.5C17.016 19.5 16.905 19.446 16.831 19.352 16.757 19.258 16.731 19.137 16.761 19.021L16.827 18.755C16.864 18.605 16.998 18.501 17.153 18.501L17.865 18.501C17.984 18.501 18.095 18.555 18.169 18.649 18.243 18.743 18.269 18.864 18.239 18.98L18.173 19.246C18.136 19.396 18.002 19.5 17.847 19.5L17.135 19.5z"/>
    <path d="M10.616 17.68L9.656 18.833 8.916 17.723C8.761 17.493 8.45 17.432 8.223 17.584 7.994 17.737 7.931 18.047 8.084 18.277L8.988 19.633 8.116 20.68C7.939 20.892 7.968 21.208 8.179 21.385 8.273 21.462 8.387 21.5 8.5 21.5 8.643 21.5 8.785 21.439 8.884 21.32L11.384 18.32C11.561 18.108 11.532 17.792 11.321 17.615 11.108 17.441 10.793 17.467 10.616 17.68zM21.621 15.515C21.35 15.447 21.081 15.611 21.015 15.879L20.015 19.879C19.949 20.147 20.111 20.418 20.379 20.485 20.42 20.495 20.46 20.5 20.5 20.5 20.725 20.5 20.929 20.349 20.985 20.121L21.985 16.121C22.052 15.854 21.89 15.582 21.621 15.515z"/>
    <path fill-rule="nonzero" d="M17.009,8.028 L17.379,6.546 C17.586,5.715 17.423,4.853 16.943,4.238 C16.604,3.804 16.146,3.559 15.645,3.517 L15.664,3.387 C15.768,2.661 15.552,1.927 15.071,1.372 C14.59,0.817 13.894,0.5 13.16,0.5 L7.5,0.5 C7.259,0.5 7.052,0.673 7.008,0.911 L5.008,11.911 C4.982,12.057 5.022,12.207 5.116,12.321 C5.21,12.435 5.352,12.5 5.5,12.5 L7.859,12.5 L7.514,13.879 C7.477,14.028 7.51,14.187 7.605,14.308 C7.7,14.429 7.846,14.5 8,14.5 L10.5,14.5 C10.729,14.5 10.93,14.344 10.985,14.121 L11.89,10.5 L13.842,10.5 C15.343,10.5 16.645,9.484 17.009,8.028 Z M11.5,9.5 C11.271,9.5 11.07,9.656 11.015,9.879 L10.109,13.5 L8.641,13.5 L8.986,12.121 L9.891,8.5 L11.5,8.5 C13.458,8.5 15.143,7.039 15.419,5.102 L15.505,4.501 C15.816,4.503 16.03,4.694 16.155,4.854 C16.442,5.223 16.54,5.778 16.408,6.305 L16.038,7.787 C15.786,8.796 14.883,9.501 13.843,9.501 L11.5,9.501 L11.5,9.5 Z"/>
  </g>
</svg>
